<svg width="24" height="24" viewBox="0 0 24 24" fill="none" xmlns="http://www.w3.org/2000/svg">
<g clip-path="url(#clip0_973_30960)">
<path d="M11.9996 -0.0205078C7.35561 -0.0205078 3.59961 3.73549 3.59961 8.37949C3.59961 14.6795 11.9996 23.9795 11.9996 23.9795C11.9996 23.9795 20.3996 14.6795 20.3996 8.37949C20.3996 3.73549 16.6436 -0.0205078 11.9996 -0.0205078ZM5.99961 8.37949C5.99961 5.06749 8.68761 2.37949 11.9996 2.37949C15.3116 2.37949 17.9996 5.06749 17.9996 8.37949C17.9996 11.8355 14.5436 17.0075 11.9996 20.2355C9.50361 17.0315 5.99961 11.7995 5.99961 8.37949Z" fill="#001A71"/>
<path d="M11.9996 11.3795C13.6565 11.3795 14.9996 10.0363 14.9996 8.37949C14.9996 6.72264 13.6565 5.37949 11.9996 5.37949C10.3428 5.37949 8.99961 6.72264 8.99961 8.37949C8.99961 10.0363 10.3428 11.3795 11.9996 11.3795Z" fill="#001A71"/>
</g>
<defs>
<clipPath id="clip0_973_30960">
<rect width="24" height="24" fill="white"/>
</clipPath>
</defs>
</svg>
