<svg width="300" height="53" viewBox="0 0 300 53" fill="none" xmlns="http://www.w3.org/2000/svg">
<g clip-path="url(#clip0_1103_9328)">
<path d="M139.474 10.1522C141.583 10.9591 144.324 11.2708 147.598 10.0055C148.24 9.71206 149.917 8.70345 150.339 7.41058C150.468 7.02547 150.559 6.41113 150.009 5.44836C149.138 3.92626 146.635 3.21105 144.553 3.88958C141.161 4.98989 139.905 8.64843 139.895 8.68511C139.886 8.71261 139.877 8.73095 139.868 8.76763C139.685 9.24443 139.556 9.7029 139.483 10.1522M146.965 39.5397C147.167 39.5489 148.79 39.6405 150.944 39.1912C151.183 38.3385 151.256 37.7884 151.265 37.7792C151.265 37.7425 151.275 37.6967 151.284 37.6508C151.293 37.605 152.237 32.6352 150.083 29.4443C149.156 28.0781 147.809 27.2437 145.947 26.8861C143.444 26.4093 141.436 26.6752 139.987 27.6747C138.162 28.94 137.75 30.9939 137.75 31.0123C137.75 31.0673 137.732 31.1131 137.713 31.1681C137.713 31.1773 137.081 33.7814 138.648 35.982C140.07 37.9809 142.866 39.1729 146.965 39.5397ZM138.172 52.4592C137.365 52.4592 136.521 52.4133 135.641 52.3308C128.801 51.6339 123.107 47.2144 120.411 40.5116C117.385 32.9928 120.548 26.4093 121.007 25.5199C121.264 24.9239 122.666 21.9439 125.793 19.4315C128.14 17.5518 131.836 15.6537 137.136 15.7454C136.558 14.8193 136.081 13.7007 135.879 12.3987C133.523 10.9866 132.129 9.31779 131.9 9.02437C131.496 8.5384 128.736 5.14577 128.452 1.99154C128.361 1.00126 129.094 0.121013 130.094 0.0293202C131.084 -0.0623725 131.964 0.671169 132.056 1.67062C132.193 3.22939 133.743 5.59506 134.687 6.71371C134.706 6.73205 134.724 6.75956 134.733 6.7779C134.797 6.86042 135.311 7.4931 136.219 8.24498C136.292 8.00658 136.374 7.75901 136.466 7.51144C136.677 6.91544 138.474 2.05573 143.435 0.451106C147.148 -0.759237 151.412 0.643661 153.145 3.64201C154.08 5.26497 154.3 6.96129 153.778 8.54757C152.769 11.6101 149.413 13.1597 149.028 13.3248C149.001 13.3339 148.982 13.3431 148.955 13.3523C145.681 14.6268 142.793 14.6635 140.427 14.1775C140.519 14.3059 140.62 14.4342 140.721 14.5534C141.885 15.9563 143.38 16.6899 143.398 16.699C144.233 17.1025 144.636 18.0744 144.315 18.9547C143.994 19.8258 143.068 20.3209 142.169 20.0825C128.736 16.6073 124.482 26.5377 124.317 26.9594C124.289 27.0236 124.262 27.0878 124.225 27.152C124.198 27.207 121.227 32.8645 123.758 39.1546C125.949 44.5828 130.524 48.168 135.999 48.7273C141.665 49.305 145.929 47.6912 148.68 43.9134C148.881 43.6383 149.065 43.3633 149.239 43.0882C147.781 43.2166 146.8 43.1524 146.672 43.1432C141.408 42.6847 137.704 40.9609 135.65 38.0268C133.284 34.6433 134.055 30.8931 134.192 30.3062C134.302 29.7561 135.054 26.6752 137.924 24.6946C140.198 23.1267 143.123 22.6682 146.617 23.3284C149.441 23.8694 151.623 25.2448 153.09 27.4271C155.602 31.159 155.162 36.1195 154.924 37.7884C156.877 36.7797 158.848 35.2026 160.361 32.7544C164.753 25.6574 160.618 19.7432 160.435 19.4957C159.848 18.6888 160.022 17.561 160.829 16.9741C161.636 16.3873 162.773 16.5615 163.36 17.3684C163.424 17.4509 164.873 19.4498 165.588 22.5582C166.248 25.4282 166.413 29.8569 163.442 34.6616C160.765 38.9895 157.014 41.1351 153.741 42.1804C153.273 43.3358 152.622 44.6378 151.705 45.9123C149.505 48.9932 145.415 52.4592 138.172 52.4592Z" fill="#001A71"/>
<path d="M295.828 20.1923C295.122 18.4868 294.416 16.7813 293.719 15.0667C293.637 14.8741 293.545 14.8191 293.343 14.8191C292.674 14.8375 285.265 14.8191 285.173 14.8191V15.6719H287.622V23.3924H289.428V15.6719H291.729V23.3924H292.6C292.564 21.1734 292.518 18.9636 292.481 16.708C293.481 19.1287 294.471 20.99 295.47 23.4291C296.397 21.0451 297.295 19.2295 298.203 16.8914C298.212 16.8914 298.221 16.8914 298.23 16.8914V23.3832H299.982V14.8099C299.908 14.8099 299.853 14.8008 299.789 14.8008C299.312 14.8008 298.836 14.8008 298.359 14.8008C298.212 14.8008 298.139 14.8375 298.084 14.9842C297.873 15.5343 297.644 16.0845 297.423 16.6346C296.928 17.8725 296.424 19.1195 295.911 20.394C295.865 20.3023 295.837 20.2382 295.81 20.174M239.446 17.5149C239.446 16.0203 238.236 14.8008 236.732 14.8008C235.228 14.8008 234.018 16.0203 234.018 17.5149C234.018 19.0095 235.228 20.229 236.732 20.229C238.236 20.229 239.446 19.0095 239.446 17.5149ZM278.498 32.8184C278.37 28.0779 277.086 24.5385 273.143 24.5385C269.2 24.5385 267.385 28.0779 267.082 32.8184H278.507H278.498ZM262.47 34.3221C262.47 27.0601 267.211 22.8606 273.143 22.8606C279.076 22.8606 283.193 27.2435 283.193 33.9737V34.5514H266.991C267.165 40.3922 269.43 43.8949 273.895 43.8949C277.306 43.8949 279.69 41.7676 280.451 38.3199L282.707 38.6317C281.827 42.3086 279.122 45.8021 273.235 45.8021C267.036 45.8021 262.479 41.8134 262.479 34.3313M241.454 23.4016H246.195L252.439 41.8593H252.485L258.949 23.4016H261.691L253.897 45.2702H249.688L241.454 23.4016ZM234.55 23.4016H238.933V45.2702H234.55V23.4016ZM220.117 23.4016H224.326V27.7386C225.298 25.2629 227.691 22.8697 231.102 22.8697C231.634 22.8697 231.946 22.9156 232.258 22.9614V26.1065C231.9 26.0606 231.46 26.0148 230.754 26.0148C227.169 26.0148 224.464 28.0962 224.464 33.0935V45.2702H220.127V23.4016H220.117ZM196.305 14.8099H200.688V26.9867H200.734C202.237 24.5569 204.365 22.8697 207.904 22.8697C212.507 22.8697 215.432 25.7947 215.432 31.1037V45.2702H211.049V31.0212C211.049 27.6561 210.077 24.9512 206.794 24.9512C203.118 24.9512 200.688 28.4446 200.688 31.9932V45.2702H196.305V14.8191V14.8099ZM180.46 16.9831H171.209V14.8099H193.242L192.353 16.9831H185.008V45.2702H180.451V16.9831H180.46ZM98.6155 23.4016H102.824V27.7386C103.796 25.2629 106.189 22.8697 109.6 22.8697C110.132 22.8697 110.444 22.9156 110.756 22.9614V26.1065C110.398 26.0606 109.958 26.0148 109.252 26.0148C105.667 26.0148 102.962 28.0962 102.962 33.0935V45.2702H98.6246V23.4016H98.6155ZM90.4731 32.8276C90.3448 28.087 89.0611 24.5477 85.1183 24.5477C81.1755 24.5477 79.36 28.087 79.0482 32.8276H90.4731ZM74.4453 34.3313C74.4453 27.0693 79.1858 22.8697 85.1183 22.8697C91.0508 22.8697 95.1678 27.2526 95.1678 33.9829V34.5605H78.9657C79.1399 40.4014 81.3956 43.904 85.8702 43.904C89.2811 43.904 91.6652 41.7768 92.4262 38.3291L94.6818 38.6409C93.7924 42.3177 91.0967 45.8112 85.21 45.8112C79.0116 45.8112 74.4544 41.8226 74.4544 34.3405M65.0284 42.1344C64.7625 41.5108 64.7167 40.8048 64.7167 39.8787V25.2262H60.8197V23.4107H64.7167V16.5063H69.0996V23.4107H73.2258L72.5197 25.2262H69.0996V40.9882C69.0996 42.8954 69.9432 43.6014 71.667 43.6014C72.5472 43.6014 73.079 43.5097 73.7484 43.4272V45.1969C72.6389 45.3711 71.667 45.5086 70.3374 45.5086C67.55 45.5086 65.6886 44.3992 65.0284 42.1435M41.0783 38.1182L44.6635 37.6781C45.0211 41.8868 47.2767 44.3166 51.302 44.3166C54.9331 44.3166 56.4827 42.4094 56.4827 39.8054C56.4827 37.7698 55.2907 36.8804 51.3937 36.0001L48.0745 35.2482C44.5351 34.4505 42.0961 32.7267 42.0961 29.3157C42.0961 25.593 45.7271 22.8972 50.9536 22.8972C56.1801 22.8972 59.4077 25.3363 59.9395 29.4899L56.4368 29.9301C56.0792 26.3449 54.3096 24.3918 50.7702 24.3918C47.8911 24.3918 46.0756 26.0331 46.0756 28.2888C46.0756 30.416 47.671 31.2596 50.1926 31.8281L53.4201 32.58C57.8947 33.6436 60.508 35.0557 60.508 38.6867C60.508 43.0696 56.4827 45.8112 51.082 45.8112C45.6813 45.8112 41.5643 43.3355 41.0783 38.1091M28.5531 44.0416C32.8076 44.0416 34.8432 40.0529 34.8432 34.3497C34.8432 28.6464 32.8076 24.6577 28.5531 24.6577C24.2986 24.6577 22.263 28.6464 22.263 34.3497C22.263 40.0529 24.2986 44.0416 28.5531 44.0416ZM17.7059 34.3497C17.7059 28.1512 21.6028 22.8881 28.5531 22.8881C35.5034 22.8881 39.4003 28.1512 39.4003 34.3497C39.4003 40.5481 35.4576 45.8204 28.5531 45.8204C21.6486 45.8204 17.7059 40.5939 17.7059 34.3497ZM0 14.8191H20.53L19.6956 16.9922H4.51128V28.4997H15.2668L14.4691 30.6728H4.51128V45.2794H0V14.8191Z" fill="#3A3E41"/>
</g>
<defs>
<clipPath id="clip0_1103_9328">
<rect width="300" height="52.439" fill="white" transform="translate(0 0.0200195)"/>
</clipPath>
</defs>
</svg>
