<svg width="24" height="25" viewBox="0 0 24 25" fill="none" xmlns="http://www.w3.org/2000/svg">
<path d="M18.92 5.87133C18.72 5.28133 18.16 4.86133 17.5 4.86133H6.5C5.84 4.86133 5.29 5.28133 5.08 5.87133L3 11.8613V19.8613C3 20.4113 3.45 20.8613 4 20.8613H5C5.55 20.8613 6 20.4113 6 19.8613V18.8613H18V19.8613C18 20.4113 18.45 20.8613 19 20.8613H20C20.55 20.8613 21 20.4113 21 19.8613V11.8613L18.92 5.87133ZM6.85 6.86133H17.14L18.18 9.86133H5.81L6.85 6.86133ZM19 16.8613H5V11.8613H19V16.8613Z" fill="#001A71"/>
<path d="M7.5 15.8613C8.32843 15.8613 9 15.1898 9 14.3613C9 13.5329 8.32843 12.8613 7.5 12.8613C6.67157 12.8613 6 13.5329 6 14.3613C6 15.1898 6.67157 15.8613 7.5 15.8613Z" fill="#001A71"/>
<path d="M16.5 15.8613C17.3284 15.8613 18 15.1898 18 14.3613C18 13.5329 17.3284 12.8613 16.5 12.8613C15.6716 12.8613 15 13.5329 15 14.3613C15 15.1898 15.6716 15.8613 16.5 15.8613Z" fill="#001A71"/>
</svg>
