<svg width="8" height="7" viewBox="0 0 8 7" fill="none" xmlns="http://www.w3.org/2000/svg">
<path fill-rule="evenodd" clip-rule="evenodd" d="M0.698526 0.276894L0.734835 0.234835C0.867968 0.101702 1.0763 0.0895987 1.22311 0.198526L1.26517 0.234835L4 2.9695L6.73484 0.234835C6.86797 0.101702 7.0763 0.0895987 7.22311 0.198526L7.26516 0.234835C7.3983 0.367968 7.4104 0.5763 7.30147 0.723106L7.26516 0.765165L4.5305 3.5L7.26516 6.23484C7.3983 6.36797 7.4104 6.5763 7.30147 6.72311L7.26516 6.76516C7.13203 6.8983 6.9237 6.9104 6.77689 6.80147L6.73484 6.76516L4 4.0305L1.26517 6.76516C1.13203 6.8983 0.9237 6.9104 0.776894 6.80147L0.734835 6.76516C0.601702 6.63203 0.589599 6.4237 0.698526 6.27689L0.734835 6.23484L3.4695 3.5L0.734835 0.765165C0.601702 0.632032 0.589599 0.4237 0.698526 0.276894L0.734835 0.234835L0.698526 0.276894Z" fill="#001A71"/>
</svg>
