<svg width="22" height="25" viewBox="0 0 22 25" fill="none" xmlns="http://www.w3.org/2000/svg">
<path d="M19.4934 9.02714C19.4934 9.02714 21.7594 12.1191 19.4934 15.7851C17.1934 19.5051 12.8214 19.1631 12.8214 19.1631C6.89536 18.6431 8.01736 14.4551 8.01736 14.4551C8.01736 14.4551 8.58736 11.2211 12.5834 11.9811C16.5794 12.7411 15.5794 17.6891 15.5794 17.6891C15.5794 17.6891 14.7934 23.9291 7.95536 23.2271C5.20536 22.9451 2.95536 21.1711 1.87736 18.4951C0.591358 15.3051 2.12336 12.5031 2.12336 12.5031C2.12336 12.5031 4.22536 7.24114 10.9674 8.98514C10.9674 8.98514 7.83936 7.50914 8.99936 4.46314C8.99936 4.46314 9.64736 2.45514 11.5754 1.82914C12.7854 1.43514 14.3234 1.82514 14.9294 2.88114C16.0874 4.89114 13.4814 6.03514 13.4814 6.03514C9.36536 7.63314 6.84136 4.35514 6.84136 4.35514C6.84136 4.35514 5.60136 2.88714 5.49336 1.67914" stroke="#001A71" stroke-width="1.6" stroke-linecap="round" stroke-linejoin="round"/>
</svg>
