<svg width="19" height="25" viewBox="0 0 19 25" fill="none" xmlns="http://www.w3.org/2000/svg">
<path d="M18.1208 10.637C18.1208 10.637 7.52883 9.57696 6.76683 15.423M8.37283 18.723C5.66283 17.471 6.41083 13.851 9.05883 13.027C12.1948 12.051 15.5988 14.675 15.3768 17.863C15.1168 21.617 11.0108 23.741 7.51483 23.225C1.65083 22.361 0.040831 15.665 3.75283 11.565C5.66483 9.45296 8.37283 8.71896 10.8628 7.48896C11.9008 6.97496 12.9988 6.05696 12.9308 4.80096C12.9308 3.07696 11.5048 1.67896 9.74483 1.67896C7.98483 1.67896 6.55883 3.07696 6.55883 4.80096C6.55883 4.80096 6.46083 7.40696 9.50083 7.99296" stroke="#001A71" stroke-width="1.6" stroke-linecap="round" stroke-linejoin="round"/>
</svg>
