<svg width="18" height="23" viewBox="0 0 18 23" fill="none" xmlns="http://www.w3.org/2000/svg">
<path d="M13.355 5.22691L13.347 0.878906C12.159 1.08891 10.567 1.57891 8.45501 2.48891C-1.50099 6.77091 0.0490063 10.0689 5.32901 9.88491C5.32901 9.88491 9.20901 9.82291 11.365 9.14491C11.365 9.14491 -0.166994 13.5209 2.09701 17.5269C2.09701 17.5269 4.03701 21.3489 13.737 16.9729C13.737 16.9729 17.723 15.3429 16.853 14.4449C15.959 13.5229 13.321 13.8309 10.497 15.0029C7.78501 16.1269 3.64301 18.6929 6.19301 21.1629C6.19301 21.1629 7.80901 22.6729 11.527 21.9949" stroke="#001A71" stroke-width="1.6" stroke-linecap="round" stroke-linejoin="round"/>
</svg>
