<svg width="24" height="25" viewBox="0 0 24 25" fill="none" xmlns="http://www.w3.org/2000/svg">
<rect y="0.479004" width="24" height="24" rx="12" fill="#001A71"/>
<path d="M11.9973 6.31944C14.0042 6.31944 14.2419 6.32824 15.0312 6.36345C15.7647 6.39573 16.1608 6.51896 16.4249 6.62166C16.7741 6.75663 17.0264 6.92094 17.2875 7.18208C17.5516 7.44616 17.713 7.69556 17.848 8.04472C17.9507 8.3088 18.0739 8.70784 18.1062 9.43845C18.1414 10.2307 18.1502 10.4683 18.1502 12.4724C18.1502 14.4793 18.1414 14.717 18.1062 15.5063C18.0739 16.2398 17.9507 16.6359 17.848 16.9C17.713 17.2492 17.5487 17.5015 17.2875 17.7626C17.0235 18.0267 16.7741 18.1881 16.4249 18.3231C16.1608 18.4258 15.7618 18.549 15.0312 18.5813C14.239 18.6165 14.0013 18.6253 11.9973 18.6253C9.99031 18.6253 9.75264 18.6165 8.96336 18.5813C8.22982 18.549 7.83371 18.4258 7.56963 18.3231C7.22047 18.1881 6.96813 18.0238 6.70699 17.7626C6.44292 17.4986 6.28154 17.2492 6.14657 16.9C6.04387 16.6359 5.92064 16.2369 5.88837 15.5063C5.85316 14.7141 5.84435 14.4764 5.84435 12.4724C5.84435 10.4654 5.85316 10.2277 5.88837 9.43845C5.92064 8.70491 6.04387 8.3088 6.14657 8.04472C6.28154 7.69556 6.44585 7.44322 6.70699 7.18208C6.97107 6.91801 7.22047 6.75663 7.56963 6.62166C7.83371 6.51896 8.23275 6.39573 8.96336 6.36345C9.75264 6.32824 9.99031 6.31944 11.9973 6.31944ZM11.9973 4.9668C9.95804 4.9668 9.70276 4.9756 8.90174 5.01081C8.10365 5.04602 7.55496 5.17512 7.07963 5.35997C6.58376 5.55363 6.16418 5.8089 5.74753 6.22848C5.32794 6.64513 5.07267 7.06472 4.87902 7.55765C4.69416 8.03592 4.56506 8.58167 4.52985 9.37976C4.49464 10.1837 4.48584 10.439 4.48584 12.4782C4.48584 14.5175 4.49464 14.7727 4.52985 15.5738C4.56506 16.3718 4.69416 16.9205 4.87902 17.3959C5.07267 17.8917 5.32794 18.3113 5.74753 18.728C6.16418 19.1446 6.58376 19.4028 7.0767 19.5935C7.55496 19.7784 8.10072 19.9075 8.89881 19.9427C9.69983 19.9779 9.9551 19.9867 11.9943 19.9867C14.0336 19.9867 14.2888 19.9779 15.0899 19.9427C15.888 19.9075 16.4366 19.7784 16.912 19.5935C17.4049 19.4028 17.8245 19.1446 18.2411 18.728C18.6578 18.3113 18.916 17.8917 19.1067 17.3988C19.2916 16.9205 19.4207 16.3748 19.4559 15.5767C19.4911 14.7757 19.4999 14.5204 19.4999 12.4812C19.4999 10.4419 19.4911 10.1867 19.4559 9.38563C19.4207 8.58754 19.2916 8.03885 19.1067 7.56352C18.9219 7.06472 18.6666 6.64513 18.247 6.22848C17.8304 5.81183 17.4108 5.55363 16.9178 5.36291C16.4396 5.17806 15.8938 5.04895 15.0957 5.01374C14.2918 4.9756 14.0365 4.9668 11.9973 4.9668Z" fill="white"/>
<path d="M11.9971 8.61987C9.86689 8.61987 8.13867 10.3481 8.13867 12.4783C8.13867 14.6085 9.86689 16.3367 11.9971 16.3367C14.1273 16.3367 15.8555 14.6085 15.8555 12.4783C15.8555 10.3481 14.1273 8.61987 11.9971 8.61987ZM11.9971 14.9811C10.6151 14.9811 9.49425 13.8603 9.49425 12.4783C9.49425 11.0963 10.6151 9.97545 11.9971 9.97545C13.3791 9.97545 14.4999 11.0963 14.4999 12.4783C14.4999 13.8603 13.3791 14.9811 11.9971 14.9811Z" fill="white"/>
<path d="M16.909 8.46719C16.909 8.966 16.5041 9.36798 16.0082 9.36798C15.5094 9.36798 15.1074 8.96306 15.1074 8.46719C15.1074 7.96839 15.5123 7.56641 16.0082 7.56641C16.5041 7.56641 16.909 7.97132 16.909 8.46719Z" fill="white"/>
</svg>
