<svg width="24" height="25" viewBox="0 0 24 25" fill="none" xmlns="http://www.w3.org/2000/svg">
<path d="M12 2.47852C8.13 2.47852 5 5.60852 5 9.47852C5 14.7285 12 22.4785 12 22.4785C12 22.4785 19 14.7285 19 9.47852C19 5.60852 15.87 2.47852 12 2.47852ZM7 9.47852C7 6.71852 9.24 4.47852 12 4.47852C14.76 4.47852 17 6.71852 17 9.47852C17 12.3585 14.12 16.6685 12 19.3585C9.92 16.6885 7 12.3285 7 9.47852Z" fill="#001A71"/>
<path d="M12 11.9785C13.3807 11.9785 14.5 10.8592 14.5 9.47852C14.5 8.0978 13.3807 6.97852 12 6.97852C10.6193 6.97852 9.5 8.0978 9.5 9.47852C9.5 10.8592 10.6193 11.9785 12 11.9785Z" fill="#001A71"/>
</svg>
