<svg width="300" height="32" viewBox="0 0 300 32" fill="none" xmlns="http://www.w3.org/2000/svg">
<path d="M295.828 6.19231C295.122 4.48682 294.416 2.78134 293.719 1.06669C293.637 0.874134 293.545 0.819118 293.343 0.819118C292.674 0.837457 285.265 0.819118 285.173 0.819118V1.67186H287.622V9.39238H289.428V1.67186H291.729V9.39238H292.6C292.564 7.17342 292.518 4.96363 292.481 2.70799C293.481 5.12867 294.471 6.99003 295.47 9.42906C296.397 7.04505 297.295 5.22953 298.203 2.89137C298.212 2.89137 298.221 2.89137 298.23 2.89137V9.38321H299.982V0.809949C299.908 0.809949 299.853 0.800781 299.789 0.800781C299.312 0.800781 298.836 0.800781 298.359 0.800781C298.212 0.800781 298.139 0.837457 298.084 0.984165C297.873 1.53432 297.644 2.08448 297.423 2.63463C296.928 3.87248 296.424 5.1195 295.911 6.39403C295.865 6.30234 295.837 6.23815 295.81 6.17397M239.446 3.51488C239.446 2.02029 238.236 0.800781 236.732 0.800781C235.228 0.800781 234.018 2.02029 234.018 3.51488C234.018 5.00947 235.228 6.22899 236.732 6.22899C238.236 6.22899 239.446 5.00947 239.446 3.51488ZM278.498 18.8184C278.37 14.0779 277.086 10.5385 273.143 10.5385C269.2 10.5385 267.385 14.0779 267.082 18.8184H278.507H278.498ZM262.47 20.3221C262.47 13.0601 267.211 8.86056 273.143 8.86056C279.076 8.86056 283.193 13.2435 283.193 19.9737V20.5514H266.991C267.165 26.3922 269.43 29.8949 273.895 29.8949C277.306 29.8949 279.69 27.7676 280.451 24.3199L282.707 24.6317C281.827 28.3086 279.122 31.8021 273.235 31.8021C267.036 31.8021 262.479 27.8134 262.479 20.3313M241.454 9.40155H246.195L252.439 27.8593H252.485L258.949 9.40155H261.691L253.897 31.2702H249.688L241.454 9.40155ZM234.55 9.40155H238.933V31.2702H234.55V9.40155ZM220.117 9.40155H224.326V13.7386C225.298 11.2629 227.691 8.86973 231.102 8.86973C231.634 8.86973 231.946 8.91558 232.258 8.96143V12.1065C231.9 12.0606 231.46 12.0148 230.754 12.0148C227.169 12.0148 224.464 14.0962 224.464 19.0935V31.2702H220.127V9.40155H220.117ZM196.305 0.809949H200.688V12.9867H200.734C202.237 10.5569 204.365 8.86973 207.904 8.86973C212.507 8.86973 215.432 11.7947 215.432 17.1037V31.2702H211.049V17.0212C211.049 13.6561 210.077 10.9512 206.794 10.9512C203.118 10.9512 200.688 14.4446 200.688 17.9932V31.2702H196.305V0.819118V0.809949ZM180.46 2.98307H171.209V0.809949H193.242L192.353 2.98307H185.008V31.2702H180.451V2.98307H180.46ZM98.6155 9.40155H102.824V13.7386C103.796 11.2629 106.189 8.86973 109.6 8.86973C110.132 8.86973 110.444 8.91558 110.756 8.96143V12.1065C110.398 12.0606 109.958 12.0148 109.252 12.0148C105.667 12.0148 102.962 14.0962 102.962 19.0935V31.2702H98.6246V9.40155H98.6155ZM90.4731 18.8276C90.3448 14.087 89.0611 10.5477 85.1183 10.5477C81.1755 10.5477 79.36 14.087 79.0482 18.8276H90.4731ZM74.4453 20.3313C74.4453 13.0693 79.1858 8.86973 85.1183 8.86973C91.0508 8.86973 95.1678 13.2526 95.1678 19.9829V20.5605H78.9657C79.1399 26.4014 81.3956 29.904 85.8702 29.904C89.2811 29.904 91.6652 27.7768 92.4262 24.3291L94.6818 24.6409C93.7924 28.3177 91.0967 31.8112 85.21 31.8112C79.0116 31.8112 74.4544 27.8226 74.4544 20.3405M65.0284 28.1344C64.7625 27.5108 64.7167 26.8048 64.7167 25.8787V11.2262H60.8197V9.41072H64.7167V2.50626H69.0996V9.41072H73.2258L72.5197 11.2262H69.0996V26.9882C69.0996 28.8954 69.9432 29.6014 71.667 29.6014C72.5472 29.6014 73.079 29.5097 73.7484 29.4272V31.1969C72.6389 31.3711 71.667 31.5086 70.3374 31.5086C67.55 31.5086 65.6886 30.3992 65.0284 28.1435M41.0783 24.1182L44.6635 23.6781C45.0211 27.8868 47.2767 30.3166 51.302 30.3166C54.9331 30.3166 56.4827 28.4094 56.4827 25.8054C56.4827 23.7698 55.2907 22.8804 51.3937 22.0001L48.0745 21.2482C44.5351 20.4505 42.0961 18.7267 42.0961 15.3157C42.0961 11.593 45.7271 8.89724 50.9536 8.89724C56.1801 8.89724 59.4077 11.3363 59.9395 15.4899L56.4368 15.9301C56.0792 12.3449 54.3096 10.3918 50.7702 10.3918C47.8911 10.3918 46.0756 12.0331 46.0756 14.2888C46.0756 16.416 47.671 17.2596 50.1926 17.8281L53.4201 18.58C57.8947 19.6436 60.508 21.0557 60.508 24.6867C60.508 29.0696 56.4827 31.8112 51.082 31.8112C45.6813 31.8112 41.5643 29.3355 41.0783 24.1091M28.5531 30.0416C32.8076 30.0416 34.8432 26.0529 34.8432 20.3497C34.8432 14.6464 32.8076 10.6577 28.5531 10.6577C24.2986 10.6577 22.263 14.6464 22.263 20.3497C22.263 26.0529 24.2986 30.0416 28.5531 30.0416ZM17.7059 20.3497C17.7059 14.1512 21.6028 8.88807 28.5531 8.88807C35.5034 8.88807 39.4003 14.1512 39.4003 20.3497C39.4003 26.5481 35.4576 31.8204 28.5531 31.8204C21.6486 31.8204 17.7059 26.5939 17.7059 20.3497ZM0 0.819118H20.53L19.6956 2.99223H4.51128V14.4997H15.2668L14.4691 16.6728H4.51128V31.2794H0V0.819118Z" fill="#3A3E41"/>
</svg>
