<svg width="745" height="935" viewBox="0 0 745 935" fill="none" xmlns="http://www.w3.org/2000/svg">
<mask id="mask0_22_183558" style="mask-type:alpha" maskUnits="userSpaceOnUse" x="0" y="0" width="746" height="935">
<rect x="0.331055" width="744.669" height="935" fill="#B2DBD3"/>
</mask>
<g mask="url(#mask0_22_183558)">
<path d="M1021.12 -38.3188C1021.12 -38.3188 1205.25 95.4656 1128.87 325.535C1051.32 559.003 785.721 603.662 785.721 603.662C424.817 661.157 424.807 419.486 424.807 419.486C424.807 419.486 407.161 237.143 657.052 220.413C906.942 203.684 926.329 484.513 926.329 484.513C926.329 484.513 979.049 831.817 560.976 892.67C392.847 917.16 230.682 854.106 123.873 725.581C-3.50844 572.382 42.9754 399.419 42.9754 399.419C42.9754 399.419 84.1544 85.7861 513.128 82.4204C513.128 82.4204 303.47 48.078 323.929 -132.655C323.929 -132.655 330.472 -250.115 435.212 -311.634C500.929 -350.303 598.662 -351.493 651.557 -303.38C752.509 -211.866 615.684 -112.677 615.684 -112.677C396.249 32.7393 193.8 -107.337 193.8 -107.337C193.8 -107.337 96.6112 -168.486 70.9249 -231.968" stroke="#FFF6ED" stroke-width="56" stroke-linecap="round" stroke-linejoin="round"/>
</g>
</svg>
