<svg width="24" height="25" viewBox="0 0 24 25" fill="none" xmlns="http://www.w3.org/2000/svg">
<g clip-path="url(#clip0_110_4315)">
<rect y="0.479004" width="24" height="24" rx="12" fill="#001A71"/>
<path d="M9.21885 18.479C14.8778 18.479 17.9739 13.8618 17.9739 9.85894C17.9739 9.72913 17.971 9.59645 17.9651 9.46664C18.5674 9.0378 19.0872 8.50661 19.5 7.89805C18.9391 8.14376 18.3435 8.30424 17.7337 8.37399C18.3758 7.99503 18.8566 7.39971 19.0869 6.69838C18.4828 7.05085 17.8222 7.29949 17.1334 7.43364C16.6693 6.94809 16.0556 6.6266 15.3873 6.51887C14.719 6.41114 14.0332 6.52318 13.4361 6.83765C12.8389 7.15213 12.3636 7.65154 12.0837 8.25866C11.8037 8.86578 11.7346 9.5468 11.8872 10.1964C10.6641 10.136 9.46746 9.82315 8.37499 9.27818C7.28252 8.73321 6.31856 7.96828 5.54561 7.03298C5.15275 7.69987 5.03254 8.48901 5.20939 9.24002C5.38625 9.99104 5.84691 10.6476 6.49775 11.0762C6.00914 11.0609 5.53123 10.9314 5.10352 10.6983V10.7358C5.10308 11.4357 5.34881 12.1141 5.79894 12.6557C6.24908 13.1973 6.87583 13.5688 7.57266 13.7069C7.12003 13.8288 6.64499 13.8466 6.18428 13.7588C6.38091 14.3607 6.76348 14.8871 7.27861 15.2646C7.79373 15.6421 8.4157 15.8518 9.05772 15.8645C7.96777 16.7075 6.62136 17.1647 5.23535 17.1625C4.98955 17.1621 4.744 17.1473 4.5 17.1181C5.90804 18.0075 7.54596 18.4799 9.21885 18.479Z" fill="white"/>
</g>
<defs>
<clipPath id="clip0_110_4315">
<rect y="0.479004" width="24" height="24" rx="12" fill="white"/>
</clipPath>
</defs>
</svg>
