<svg width="14" height="21" viewBox="0 0 14 21" fill="none" xmlns="http://www.w3.org/2000/svg">
<path d="M7 0.478516C3.13 0.478516 0 3.60852 0 7.47852C0 12.7285 7 20.4785 7 20.4785C7 20.4785 14 12.7285 14 7.47852C14 3.60852 10.87 0.478516 7 0.478516ZM2 7.47852C2 4.71852 4.24 2.47852 7 2.47852C9.76 2.47852 12 4.71852 12 7.47852C12 10.3585 9.12 14.6685 7 17.3585C4.92 14.6885 2 10.3285 2 7.47852Z" fill="#808CB8"/>
<path d="M7 9.97852C8.38071 9.97852 9.5 8.85923 9.5 7.47852C9.5 6.0978 8.38071 4.97852 7 4.97852C5.61929 4.97852 4.5 6.0978 4.5 7.47852C4.5 8.85923 5.61929 9.97852 7 9.97852Z" fill="#808CB8"/>
</svg>
