<svg width="24" height="25" viewBox="0 0 24 25" fill="none" xmlns="http://www.w3.org/2000/svg">
<rect y="0.479004" width="24" height="24" rx="12" fill="#001A71"/>
<path d="M19.8406 9.27822C19.8406 9.27822 19.6844 8.1751 19.2031 7.69072C18.5938 7.05322 17.9125 7.0501 17.6 7.0126C15.3625 6.8501 12.0031 6.8501 12.0031 6.8501H11.9969C11.9969 6.8501 8.6375 6.8501 6.4 7.0126C6.0875 7.0501 5.40625 7.05322 4.79688 7.69072C4.31563 8.1751 4.1625 9.27822 4.1625 9.27822C4.1625 9.27822 4 10.5751 4 11.8688V13.0813C4 14.3751 4.15937 15.672 4.15937 15.672C4.15937 15.672 4.31562 16.7751 4.79375 17.2595C5.40313 17.897 6.20313 17.8751 6.55938 17.9438C7.84063 18.0657 12 18.1032 12 18.1032C12 18.1032 15.3625 18.097 17.6 17.9376C17.9125 17.9001 18.5938 17.897 19.2031 17.2595C19.6844 16.7751 19.8406 15.672 19.8406 15.672C19.8406 15.672 20 14.3782 20 13.0813V11.8688C20 10.5751 19.8406 9.27822 19.8406 9.27822ZM10.3469 14.5532V10.0563L14.6687 12.3126L10.3469 14.5532Z" fill="white"/>
</svg>
